<svg width="29" height="28" viewBox="0 0 29 28" fill="none" xmlns="http://www.w3.org/2000/svg">
<ellipse cx="14.5556" cy="14" rx="14.3889" ry="14" fill="url(#paint0_linear_1158_1628)"/>
<path d="M17.6389 13V10.5C17.6389 9.70435 17.314 8.94129 16.7358 8.37868C16.1576 7.81607 15.3733 7.5 14.5555 7.5C13.7378 7.5 12.9535 7.81607 12.3753 8.37868C11.7971 8.94129 11.4722 9.70435 11.4722 10.5V13M10.9583 20.5H18.1528C18.5616 20.5 18.9538 20.342 19.2429 20.0607C19.532 19.7794 19.6944 19.3978 19.6944 19V14.5C19.6944 14.1022 19.532 13.7206 19.2429 13.4393C18.9538 13.158 18.5616 13 18.1528 13H10.9583C10.5494 13 10.1573 13.158 9.8682 13.4393C9.57908 13.7206 9.41666 14.1022 9.41666 14.5V19C9.41666 19.3978 9.57908 19.7794 9.8682 20.0607C10.1573 20.342 10.5494 20.5 10.9583 20.5Z" stroke="white" stroke-linecap="round" stroke-linejoin="round"/>
<defs>
<linearGradient id="paint0_linear_1158_1628" x1="14.5556" y1="0" x2="14.5556" y2="28" gradientUnits="userSpaceOnUse">
<stop stop-color="#00BC7D"/>
<stop offset="1" stop-color="#009966"/>
</linearGradient>
</defs>
</svg>
